<svg width="21" height="17" viewBox="0 0 21 17" fill="none" xmlns="http://www.w3.org/2000/svg">
<path d="M0.231832 0.359766C0.585402 -0.064483 1.21675 -0.121721 1.64101 0.231836L10.0658 7.25234L18.4457 0.38418L18.5287 0.322656C18.951 0.0430867 19.5248 0.122889 19.8529 0.522852C20.181 0.923103 20.1475 1.5024 19.7904 1.86172L19.7143 1.93008L11.6303 8.55606L19.64 15.2318L19.7162 15.3012C20.0706 15.6632 20.1 16.2423 19.7689 16.64C19.4375 17.0378 18.8619 17.1139 18.4418 16.8305L18.3598 16.7689L10.0551 9.84805L1.72304 16.6791C1.29593 17.0292 0.664967 16.9666 0.314839 16.5395C-0.0350939 16.1124 0.0276074 15.4823 0.454488 15.1322L8.49062 8.54434L0.359761 1.76895C-0.0644778 1.41537 -0.121723 0.784028 0.231832 0.359766Z" fill="#B4D6F4"/>
</svg>
